<mxfile host="app.diagrams.net" modified="2024-05-04T17:35:10.701Z" agent="Mozilla/5.0 (Macintosh; Intel Mac OS X 10_15_7) AppleWebKit/537.36 (KHTML, like Gecko) Chrome/124.0.0.0 Safari/537.36" etag="TiDC0PwfYIp6P8dQS_iP" version="24.2.2" type="device">
  <diagram name="Page-1" id="cy9lTz2BtADd1XnLi5tj">
    <mxGraphModel dx="2514" dy="800" grid="1" gridSize="10" guides="1" tooltips="1" connect="1" arrows="1" fold="1" page="1" pageScale="1" pageWidth="827" pageHeight="1169" math="0" shadow="0">
      <root>
        <mxCell id="0" />
        <mxCell id="1" parent="0" />
        <mxCell id="sj1nmU6FJb1mizH8p0wp-8" value="Slave" style="swimlane;horizontal=0;whiteSpace=wrap;html=1;flipV=1;flipH=1;" vertex="1" parent="1">
          <mxGeometry x="240" y="340" width="400" height="370" as="geometry" />
        </mxCell>
        <mxCell id="sj1nmU6FJb1mizH8p0wp-7" value="Master" style="swimlane;horizontal=0;whiteSpace=wrap;html=1;" vertex="1" parent="sj1nmU6FJb1mizH8p0wp-8">
          <mxGeometry x="-10" width="410" height="370" as="geometry" />
        </mxCell>
        <mxCell id="sj1nmU6FJb1mizH8p0wp-9" value="" style="endArrow=classic;html=1;rounded=0;strokeWidth=4;" edge="1" parent="sj1nmU6FJb1mizH8p0wp-7">
          <mxGeometry width="50" height="50" relative="1" as="geometry">
            <mxPoint x="21" y="43" as="sourcePoint" />
            <mxPoint x="389" y="43" as="targetPoint" />
          </mxGeometry>
        </mxCell>
        <mxCell id="sj1nmU6FJb1mizH8p0wp-23" value="Send Chunk" style="rounded=1;whiteSpace=wrap;html=1;" vertex="1" parent="sj1nmU6FJb1mizH8p0wp-7">
          <mxGeometry x="150" y="22" width="86" height="40" as="geometry" />
        </mxCell>
        <mxCell id="sj1nmU6FJb1mizH8p0wp-33" value="" style="endArrow=none;html=1;rounded=0;strokeWidth=4;startArrow=classic;startFill=1;endFill=0;" edge="1" parent="sj1nmU6FJb1mizH8p0wp-7">
          <mxGeometry width="50" height="50" relative="1" as="geometry">
            <mxPoint x="21" y="140" as="sourcePoint" />
            <mxPoint x="389" y="140" as="targetPoint" />
          </mxGeometry>
        </mxCell>
        <mxCell id="sj1nmU6FJb1mizH8p0wp-34" value="Map Finished" style="rounded=1;whiteSpace=wrap;html=1;" vertex="1" parent="sj1nmU6FJb1mizH8p0wp-7">
          <mxGeometry x="150" y="120" width="86" height="40" as="geometry" />
        </mxCell>
        <mxCell id="sj1nmU6FJb1mizH8p0wp-14" value="" style="endArrow=classic;html=1;rounded=0;strokeWidth=4;entryX=0.024;entryY=0.077;entryDx=0;entryDy=0;entryPerimeter=0;" edge="1" parent="1">
          <mxGeometry width="50" height="50" relative="1" as="geometry">
            <mxPoint y="383" as="sourcePoint" />
            <mxPoint x="229.84000000000015" y="383.03" as="targetPoint" />
          </mxGeometry>
        </mxCell>
        <mxCell id="sj1nmU6FJb1mizH8p0wp-27" value="Map" style="shape=hexagon;perimeter=hexagonPerimeter2;whiteSpace=wrap;html=1;fixedSize=1;" vertex="1" parent="1">
          <mxGeometry x="720" y="365" width="80" height="39" as="geometry" />
        </mxCell>
        <mxCell id="sj1nmU6FJb1mizH8p0wp-29" value="Split" style="shape=hexagon;perimeter=hexagonPerimeter2;whiteSpace=wrap;html=1;fixedSize=1;" vertex="1" parent="1">
          <mxGeometry x="80" y="358" width="80" height="50" as="geometry" />
        </mxCell>
        <mxCell id="sj1nmU6FJb1mizH8p0wp-31" value="" style="endArrow=classic;html=1;rounded=0;strokeWidth=4;entryX=0;entryY=0.5;entryDx=0;entryDy=0;" edge="1" parent="1" target="sj1nmU6FJb1mizH8p0wp-27">
          <mxGeometry width="50" height="50" relative="1" as="geometry">
            <mxPoint x="640" y="384.63" as="sourcePoint" />
            <mxPoint x="1008" y="384.63" as="targetPoint" />
          </mxGeometry>
        </mxCell>
        <mxCell id="sj1nmU6FJb1mizH8p0wp-32" value="" style="endArrow=classic;html=1;rounded=0;strokeWidth=4;exitX=0.5;exitY=1;exitDx=0;exitDy=0;" edge="1" parent="1" source="sj1nmU6FJb1mizH8p0wp-27">
          <mxGeometry width="50" height="50" relative="1" as="geometry">
            <mxPoint x="778" y="420" as="sourcePoint" />
            <mxPoint x="640" y="480" as="targetPoint" />
            <Array as="points">
              <mxPoint x="760" y="480" />
            </Array>
          </mxGeometry>
        </mxCell>
        <mxCell id="sj1nmU6FJb1mizH8p0wp-43" value="" style="endArrow=none;html=1;rounded=0;strokeWidth=4;startArrow=classic;startFill=1;endFill=0;" edge="1" parent="1">
          <mxGeometry width="50" height="50" relative="1" as="geometry">
            <mxPoint y="480" as="sourcePoint" />
            <mxPoint x="230" y="480" as="targetPoint" />
          </mxGeometry>
        </mxCell>
        <mxCell id="sj1nmU6FJb1mizH8p0wp-46" value="" style="endArrow=classic;html=1;rounded=0;strokeWidth=4;" edge="1" parent="1">
          <mxGeometry width="50" height="50" relative="1" as="geometry">
            <mxPoint x="251" y="573" as="sourcePoint" />
            <mxPoint x="619" y="573" as="targetPoint" />
          </mxGeometry>
        </mxCell>
        <mxCell id="sj1nmU6FJb1mizH8p0wp-47" value="Start Shuffle" style="rounded=1;whiteSpace=wrap;html=1;" vertex="1" parent="1">
          <mxGeometry x="380" y="553" width="86" height="40" as="geometry" />
        </mxCell>
        <mxCell id="sj1nmU6FJb1mizH8p0wp-48" value="Choose Reducer" style="shape=hexagon;perimeter=hexagonPerimeter2;whiteSpace=wrap;html=1;fixedSize=1;" vertex="1" parent="1">
          <mxGeometry x="720" y="420" width="80" height="40" as="geometry" />
        </mxCell>
        <mxCell id="sj1nmU6FJb1mizH8p0wp-50" value="" style="endArrow=classic;html=1;rounded=0;strokeWidth=4;entryX=0;entryY=0.5;entryDx=0;entryDy=0;" edge="1" parent="1" target="sj1nmU6FJb1mizH8p0wp-51">
          <mxGeometry width="50" height="50" relative="1" as="geometry">
            <mxPoint x="640" y="572.71" as="sourcePoint" />
            <mxPoint x="720" y="573" as="targetPoint" />
          </mxGeometry>
        </mxCell>
        <mxCell id="sj1nmU6FJb1mizH8p0wp-108" style="edgeStyle=orthogonalEdgeStyle;rounded=0;orthogonalLoop=1;jettySize=auto;html=1;strokeWidth=4;" edge="1" parent="1" source="sj1nmU6FJb1mizH8p0wp-51">
          <mxGeometry relative="1" as="geometry">
            <mxPoint x="1010" y="572.5" as="targetPoint" />
          </mxGeometry>
        </mxCell>
        <mxCell id="sj1nmU6FJb1mizH8p0wp-109" value="&amp;nbsp;Send Maps&amp;nbsp;" style="edgeLabel;html=1;align=center;verticalAlign=middle;resizable=0;points=[];" vertex="1" connectable="0" parent="sj1nmU6FJb1mizH8p0wp-108">
          <mxGeometry x="-0.122" y="-1" relative="1" as="geometry">
            <mxPoint as="offset" />
          </mxGeometry>
        </mxCell>
        <mxCell id="sj1nmU6FJb1mizH8p0wp-51" value="Shuffle" style="shape=hexagon;perimeter=hexagonPerimeter2;whiteSpace=wrap;html=1;fixedSize=1;" vertex="1" parent="1">
          <mxGeometry x="720" y="553" width="80" height="39" as="geometry" />
        </mxCell>
        <mxCell id="sj1nmU6FJb1mizH8p0wp-57" value="Map" style="shadow=0;strokeWidth=1;rounded=1;absoluteArcSize=1;arcSize=2;labelPosition=center;verticalLabelPosition=middle;align=center;verticalAlign=bottom;spacingLeft=0;fontSize=12;whiteSpace=wrap;spacingBottom=2;html=1;" vertex="1" parent="1">
          <mxGeometry x="860" y="630" width="61" height="80" as="geometry" />
        </mxCell>
        <mxCell id="sj1nmU6FJb1mizH8p0wp-58" value="" style="sketch=0;dashed=0;connectable=0;html=1;fillColor=#757575;strokeColor=none;shape=mxgraph.gcp2.list;part=1;" vertex="1" parent="sj1nmU6FJb1mizH8p0wp-57">
          <mxGeometry x="0.5" width="44.5" height="50" relative="1" as="geometry">
            <mxPoint x="-22.25" y="10" as="offset" />
          </mxGeometry>
        </mxCell>
        <mxCell id="sj1nmU6FJb1mizH8p0wp-59" value="" style="endArrow=classic;html=1;rounded=0;strokeWidth=4;" edge="1" parent="1">
          <mxGeometry width="50" height="50" relative="1" as="geometry">
            <mxPoint x="860" y="660" as="sourcePoint" />
            <mxPoint x="640" y="660" as="targetPoint" />
          </mxGeometry>
        </mxCell>
        <mxCell id="sj1nmU6FJb1mizH8p0wp-61" value="Reduce" style="shape=hexagon;perimeter=hexagonPerimeter2;whiteSpace=wrap;html=1;fixedSize=1;" vertex="1" parent="1">
          <mxGeometry x="720" y="635" width="80" height="50" as="geometry" />
        </mxCell>
        <mxCell id="sj1nmU6FJb1mizH8p0wp-62" value="" style="endArrow=none;html=1;rounded=0;strokeWidth=4;startArrow=classic;startFill=1;endFill=0;" edge="1" parent="1" source="sj1nmU6FJb1mizH8p0wp-63">
          <mxGeometry width="50" height="50" relative="1" as="geometry">
            <mxPoint x="251" y="660" as="sourcePoint" />
            <mxPoint x="619" y="660" as="targetPoint" />
          </mxGeometry>
        </mxCell>
        <mxCell id="sj1nmU6FJb1mizH8p0wp-64" value="" style="endArrow=none;html=1;rounded=0;strokeWidth=4;startArrow=classic;startFill=1;endFill=0;" edge="1" parent="1" target="sj1nmU6FJb1mizH8p0wp-63">
          <mxGeometry width="50" height="50" relative="1" as="geometry">
            <mxPoint x="251" y="660" as="sourcePoint" />
            <mxPoint x="619" y="660" as="targetPoint" />
          </mxGeometry>
        </mxCell>
        <mxCell id="sj1nmU6FJb1mizH8p0wp-63" value="Send Reduced" style="rounded=1;whiteSpace=wrap;html=1;" vertex="1" parent="1">
          <mxGeometry x="380" y="640" width="86" height="40" as="geometry" />
        </mxCell>
        <mxCell id="sj1nmU6FJb1mizH8p0wp-79" value="Result" style="swimlane;fontStyle=0;childLayout=stackLayout;horizontal=1;startSize=15;horizontalStack=0;resizeParent=1;resizeParentMax=0;resizeLast=0;collapsible=1;marginBottom=0;whiteSpace=wrap;html=1;" vertex="1" parent="1">
          <mxGeometry x="-80" y="630" width="80" height="60" as="geometry" />
        </mxCell>
        <mxCell id="sj1nmU6FJb1mizH8p0wp-80" value="Item 1 : n1" style="text;strokeColor=default;fillColor=none;align=center;verticalAlign=bottom;spacingLeft=4;spacingRight=4;overflow=hidden;points=[[0,0.5],[1,0.5]];portConstraint=eastwest;rotatable=0;whiteSpace=wrap;html=1;labelPosition=center;verticalLabelPosition=middle;" vertex="1" parent="sj1nmU6FJb1mizH8p0wp-79">
          <mxGeometry y="15" width="80" height="15" as="geometry" />
        </mxCell>
        <mxCell id="sj1nmU6FJb1mizH8p0wp-81" value="Item 2 : n2" style="text;strokeColor=default;fillColor=none;align=center;verticalAlign=bottom;spacingLeft=4;spacingRight=4;overflow=hidden;points=[[0,0.5],[1,0.5]];portConstraint=eastwest;rotatable=0;whiteSpace=wrap;html=1;labelPosition=center;verticalLabelPosition=middle;" vertex="1" parent="sj1nmU6FJb1mizH8p0wp-79">
          <mxGeometry y="30" width="80" height="15" as="geometry" />
        </mxCell>
        <mxCell id="sj1nmU6FJb1mizH8p0wp-82" value="..." style="text;strokeColor=default;fillColor=none;align=center;verticalAlign=bottom;spacingLeft=4;spacingRight=4;overflow=hidden;points=[[0,0.5],[1,0.5]];portConstraint=eastwest;rotatable=0;whiteSpace=wrap;html=1;labelPosition=center;verticalLabelPosition=middle;" vertex="1" parent="sj1nmU6FJb1mizH8p0wp-79">
          <mxGeometry y="45" width="80" height="15" as="geometry" />
        </mxCell>
        <mxCell id="sj1nmU6FJb1mizH8p0wp-84" value="Map" style="shadow=0;strokeWidth=1;rounded=1;absoluteArcSize=1;arcSize=2;labelPosition=center;verticalLabelPosition=middle;align=center;verticalAlign=bottom;spacingLeft=0;fontSize=12;whiteSpace=wrap;spacingBottom=2;html=1;" vertex="1" parent="1">
          <mxGeometry x="890" y="605" width="61" height="80" as="geometry" />
        </mxCell>
        <mxCell id="sj1nmU6FJb1mizH8p0wp-85" value="" style="sketch=0;dashed=0;connectable=0;html=1;fillColor=#757575;strokeColor=none;shape=mxgraph.gcp2.list;part=1;" vertex="1" parent="sj1nmU6FJb1mizH8p0wp-84">
          <mxGeometry x="0.5" width="44.5" height="50" relative="1" as="geometry">
            <mxPoint x="-22.25" y="10" as="offset" />
          </mxGeometry>
        </mxCell>
        <mxCell id="sj1nmU6FJb1mizH8p0wp-103" style="edgeStyle=orthogonalEdgeStyle;rounded=0;orthogonalLoop=1;jettySize=auto;html=1;entryX=0.5;entryY=0;entryDx=0;entryDy=0;strokeWidth=4;" edge="1" parent="1" source="sj1nmU6FJb1mizH8p0wp-89" target="sj1nmU6FJb1mizH8p0wp-101">
          <mxGeometry relative="1" as="geometry" />
        </mxCell>
        <mxCell id="sj1nmU6FJb1mizH8p0wp-89" value="&lt;font style=&quot;font-size: 11px;&quot;&gt;Slave Shuffles Status&lt;/font&gt;" style="swimlane;fontStyle=0;childLayout=stackLayout;horizontal=1;startSize=20;fillColor=none;horizontalStack=0;resizeParent=1;resizeParentMax=0;resizeLast=0;collapsible=1;marginBottom=0;html=1;" vertex="1" parent="1">
          <mxGeometry x="-110" y="440" width="110" height="68" as="geometry" />
        </mxCell>
        <mxCell id="sj1nmU6FJb1mizH8p0wp-90" value="Slave1: OK" style="text;strokeColor=default;fillColor=none;align=left;verticalAlign=middle;spacingLeft=4;spacingRight=4;overflow=hidden;rotatable=0;points=[[0,0.5],[1,0.5]];portConstraint=eastwest;whiteSpace=wrap;html=1;fontSize=10;" vertex="1" parent="sj1nmU6FJb1mizH8p0wp-89">
          <mxGeometry y="20" width="110" height="16" as="geometry" />
        </mxCell>
        <mxCell id="sj1nmU6FJb1mizH8p0wp-91" value="Slave2: NOT OK" style="text;strokeColor=default;fillColor=none;align=left;verticalAlign=middle;spacingLeft=4;spacingRight=4;overflow=hidden;rotatable=0;points=[[0,0.5],[1,0.5]];portConstraint=eastwest;whiteSpace=wrap;html=1;fontSize=10;" vertex="1" parent="sj1nmU6FJb1mizH8p0wp-89">
          <mxGeometry y="36" width="110" height="16" as="geometry" />
        </mxCell>
        <mxCell id="sj1nmU6FJb1mizH8p0wp-92" value="..." style="text;strokeColor=default;fillColor=none;align=center;verticalAlign=middle;spacingLeft=4;spacingRight=4;overflow=hidden;rotatable=0;points=[[0,0.5],[1,0.5]];portConstraint=eastwest;whiteSpace=wrap;html=1;" vertex="1" parent="sj1nmU6FJb1mizH8p0wp-89">
          <mxGeometry y="52" width="110" height="16" as="geometry" />
        </mxCell>
        <mxCell id="sj1nmU6FJb1mizH8p0wp-67" value="Update Shuffle&amp;nbsp;&lt;div&gt;Status&lt;/div&gt;" style="shape=hexagon;perimeter=hexagonPerimeter2;whiteSpace=wrap;html=1;fixedSize=1;" vertex="1" parent="1">
          <mxGeometry x="80" y="455" width="80" height="50" as="geometry" />
        </mxCell>
        <mxCell id="sj1nmU6FJb1mizH8p0wp-97" value="" style="endArrow=none;html=1;rounded=0;strokeWidth=4;startArrow=classic;startFill=1;endFill=0;" edge="1" parent="1">
          <mxGeometry width="50" height="50" relative="1" as="geometry">
            <mxPoint y="660" as="sourcePoint" />
            <mxPoint x="230" y="659.67" as="targetPoint" />
          </mxGeometry>
        </mxCell>
        <mxCell id="sj1nmU6FJb1mizH8p0wp-68" value="Merge" style="shape=hexagon;perimeter=hexagonPerimeter2;whiteSpace=wrap;html=1;fixedSize=1;" vertex="1" parent="1">
          <mxGeometry x="80" y="635" width="80" height="50" as="geometry" />
        </mxCell>
        <mxCell id="sj1nmU6FJb1mizH8p0wp-101" value="&lt;font style=&quot;font-size: 10px;&quot;&gt;All&amp;nbsp;&lt;/font&gt;&lt;div&gt;&lt;font style=&quot;font-size: 10px;&quot;&gt;Shuffles&amp;nbsp;&lt;/font&gt;&lt;/div&gt;&lt;div&gt;&lt;font style=&quot;font-size: 10px;&quot;&gt;OK?&lt;/font&gt;&lt;/div&gt;" style="rhombus;whiteSpace=wrap;html=1;verticalAlign=middle;" vertex="1" parent="1">
          <mxGeometry x="-90" y="538.93" width="70" height="68.13" as="geometry" />
        </mxCell>
        <mxCell id="sj1nmU6FJb1mizH8p0wp-104" style="edgeStyle=orthogonalEdgeStyle;rounded=0;orthogonalLoop=1;jettySize=auto;html=1;exitX=1;exitY=0.5;exitDx=0;exitDy=0;entryX=0.002;entryY=0.629;entryDx=0;entryDy=0;entryPerimeter=0;strokeWidth=4;" edge="1" parent="1" source="sj1nmU6FJb1mizH8p0wp-101" target="sj1nmU6FJb1mizH8p0wp-7">
          <mxGeometry relative="1" as="geometry" />
        </mxCell>
        <mxCell id="sj1nmU6FJb1mizH8p0wp-105" value="&amp;nbsp;Yes&amp;nbsp;" style="edgeLabel;html=1;align=center;verticalAlign=middle;resizable=0;points=[];" vertex="1" connectable="0" parent="sj1nmU6FJb1mizH8p0wp-104">
          <mxGeometry x="-0.0337" y="1" relative="1" as="geometry">
            <mxPoint as="offset" />
          </mxGeometry>
        </mxCell>
        <mxCell id="sj1nmU6FJb1mizH8p0wp-112" style="edgeStyle=orthogonalEdgeStyle;rounded=0;orthogonalLoop=1;jettySize=auto;html=1;strokeWidth=3;" edge="1" parent="1" source="sj1nmU6FJb1mizH8p0wp-106">
          <mxGeometry relative="1" as="geometry">
            <mxPoint x="1035" y="553" as="targetPoint" />
          </mxGeometry>
        </mxCell>
        <mxCell id="sj1nmU6FJb1mizH8p0wp-106" value="Reducer" style="shape=cylinder3;whiteSpace=wrap;html=1;boundedLbl=1;backgroundOutline=1;size=15;" vertex="1" parent="1">
          <mxGeometry x="880" y="440" width="60" height="50" as="geometry" />
        </mxCell>
        <mxCell id="sj1nmU6FJb1mizH8p0wp-107" style="edgeStyle=orthogonalEdgeStyle;rounded=0;orthogonalLoop=1;jettySize=auto;html=1;entryX=0.5;entryY=0;entryDx=0;entryDy=0;entryPerimeter=0;strokeWidth=4;" edge="1" parent="1" source="sj1nmU6FJb1mizH8p0wp-48" target="sj1nmU6FJb1mizH8p0wp-106">
          <mxGeometry relative="1" as="geometry">
            <Array as="points">
              <mxPoint x="820" y="440" />
              <mxPoint x="820" y="410" />
              <mxPoint x="910" y="410" />
            </Array>
          </mxGeometry>
        </mxCell>
        <mxCell id="sj1nmU6FJb1mizH8p0wp-113" value="" style="whiteSpace=wrap;html=1;shape=mxgraph.basic.document" vertex="1" parent="1">
          <mxGeometry x="-50" y="338" width="50" height="70" as="geometry" />
        </mxCell>
        <mxCell id="sj1nmU6FJb1mizH8p0wp-114" value="" style="whiteSpace=wrap;html=1;shape=mxgraph.basic.document" vertex="1" parent="1">
          <mxGeometry x="-80" y="353" width="50" height="70" as="geometry" />
        </mxCell>
        <mxCell id="sj1nmU6FJb1mizH8p0wp-116" value="&lt;div&gt;&lt;font style=&quot;font-size: 9px;&quot;&gt;&lt;br&gt;&lt;/font&gt;&lt;/div&gt;&lt;font style=&quot;font-size: 9px;&quot;&gt;&lt;div&gt;&lt;font style=&quot;font-size: 9px;&quot;&gt;&lt;br&gt;&lt;/font&gt;&lt;/div&gt;&lt;div&gt;&lt;font style=&quot;font-size: 9px;&quot;&gt;&lt;br&gt;&lt;/font&gt;&lt;/div&gt;&lt;div&gt;&lt;font style=&quot;font-size: 9px;&quot;&gt;&lt;br&gt;&lt;/font&gt;&lt;/div&gt;&lt;div&gt;&lt;font style=&quot;font-size: 9px;&quot;&gt;&lt;br&gt;&lt;/font&gt;&lt;/div&gt;&lt;div&gt;&lt;font style=&quot;font-size: 9px;&quot;&gt;&lt;br&gt;&lt;/font&gt;&lt;/div&gt;&lt;div&gt;&lt;font style=&quot;font-size: 9px;&quot;&gt;&lt;br&gt;&lt;/font&gt;&lt;/div&gt;&lt;div&gt;&lt;font style=&quot;font-size: 9px;&quot;&gt;&lt;br&gt;&lt;/font&gt;&lt;/div&gt;&lt;div&gt;&lt;font style=&quot;font-size: 9px;&quot;&gt;&lt;br&gt;&lt;/font&gt;&lt;/div&gt;&lt;div&gt;&lt;font style=&quot;font-size: 9px;&quot;&gt;&lt;br&gt;&lt;/font&gt;&lt;/div&gt;&lt;div&gt;&lt;font style=&quot;font-size: 9px;&quot;&gt;&lt;br&gt;&lt;/font&gt;&lt;/div&gt;&lt;div&gt;&lt;font style=&quot;font-size: 9px;&quot;&gt;&lt;br&gt;&lt;/font&gt;&lt;/div&gt;&lt;div&gt;&lt;font style=&quot;font-size: 9px;&quot;&gt;&lt;br&gt;&lt;/font&gt;&lt;/div&gt;&amp;nbsp; &amp;nbsp; &amp;nbsp; &amp;nbsp; &amp;nbsp; &amp;nbsp; &amp;nbsp;Map&lt;/font&gt;" style="shadow=0;strokeWidth=1;rounded=1;absoluteArcSize=1;arcSize=2;labelPosition=center;verticalLabelPosition=middle;align=center;verticalAlign=bottom;spacingLeft=0;fontSize=12;whiteSpace=wrap;spacingBottom=-1;html=1;" vertex="1" parent="1">
          <mxGeometry x="1040" y="572" width="40" height="48" as="geometry" />
        </mxCell>
        <mxCell id="sj1nmU6FJb1mizH8p0wp-117" value="" style="sketch=0;dashed=0;connectable=0;html=1;fillColor=#757575;strokeColor=none;shape=mxgraph.gcp2.list;part=1;" vertex="1" parent="sj1nmU6FJb1mizH8p0wp-116">
          <mxGeometry x="0.5" width="29.5" height="30" relative="1" as="geometry">
            <mxPoint x="-15" y="5" as="offset" />
          </mxGeometry>
        </mxCell>
        <mxCell id="sj1nmU6FJb1mizH8p0wp-118" value="" style="html=1;verticalLabelPosition=bottom;align=center;labelBackgroundColor=#ffffff;verticalAlign=top;strokeWidth=2;strokeColor=#000000;shadow=0;dashed=0;shape=mxgraph.ios7.icons.pointer;" vertex="1" parent="1">
          <mxGeometry x="1010" y="553" width="50" height="51.5" as="geometry" />
        </mxCell>
        <mxCell id="sj1nmU6FJb1mizH8p0wp-121" value="Master" style="swimlane;fontStyle=0;childLayout=stackLayout;horizontal=1;startSize=30;horizontalStack=0;resizeParent=1;resizeParentMax=0;resizeLast=0;collapsible=1;marginBottom=0;whiteSpace=wrap;html=1;" vertex="1" parent="1">
          <mxGeometry x="100" y="810" width="270" height="240" as="geometry">
            <mxRectangle x="100" y="810" width="80" height="30" as="alternateBounds" />
          </mxGeometry>
        </mxCell>
        <mxCell id="sj1nmU6FJb1mizH8p0wp-144" value="sourceFilePath : string" style="text;strokeColor=none;fillColor=none;align=left;verticalAlign=middle;spacingLeft=4;spacingRight=4;overflow=hidden;points=[[0,0.5],[1,0.5]];portConstraint=eastwest;rotatable=0;whiteSpace=wrap;html=1;" vertex="1" parent="sj1nmU6FJb1mizH8p0wp-121">
          <mxGeometry y="30" width="270" height="30" as="geometry" />
        </mxCell>
        <mxCell id="sj1nmU6FJb1mizH8p0wp-122" value="slavesNumber : int" style="text;strokeColor=none;fillColor=none;align=left;verticalAlign=middle;spacingLeft=4;spacingRight=4;overflow=hidden;points=[[0,0.5],[1,0.5]];portConstraint=eastwest;rotatable=0;whiteSpace=wrap;html=1;" vertex="1" parent="sj1nmU6FJb1mizH8p0wp-121">
          <mxGeometry y="60" width="270" height="30" as="geometry" />
        </mxCell>
        <mxCell id="sj1nmU6FJb1mizH8p0wp-130" value="slavesHostnames : int[]" style="text;strokeColor=none;fillColor=none;align=left;verticalAlign=middle;spacingLeft=4;spacingRight=4;overflow=hidden;points=[[0,0.5],[1,0.5]];portConstraint=eastwest;rotatable=0;whiteSpace=wrap;html=1;" vertex="1" parent="sj1nmU6FJb1mizH8p0wp-121">
          <mxGeometry y="90" width="270" height="30" as="geometry" />
        </mxCell>
        <mxCell id="sj1nmU6FJb1mizH8p0wp-124" value="slavesThreads : threads[]" style="text;strokeColor=none;fillColor=none;align=left;verticalAlign=middle;spacingLeft=4;spacingRight=4;overflow=hidden;points=[[0,0.5],[1,0.5]];portConstraint=eastwest;rotatable=0;whiteSpace=wrap;html=1;" vertex="1" parent="sj1nmU6FJb1mizH8p0wp-121">
          <mxGeometry y="120" width="270" height="30" as="geometry" />
        </mxCell>
        <mxCell id="sj1nmU6FJb1mizH8p0wp-129" value="slavesShuffleStatus : boolean[]" style="text;strokeColor=none;fillColor=none;align=left;verticalAlign=middle;spacingLeft=4;spacingRight=4;overflow=hidden;points=[[0,0.5],[1,0.5]];portConstraint=eastwest;rotatable=0;whiteSpace=wrap;html=1;" vertex="1" parent="sj1nmU6FJb1mizH8p0wp-121">
          <mxGeometry y="150" width="270" height="30" as="geometry" />
        </mxCell>
        <mxCell id="sj1nmU6FJb1mizH8p0wp-128" value="slavesReduceStatus : boolean[]" style="text;strokeColor=none;fillColor=none;align=left;verticalAlign=middle;spacingLeft=4;spacingRight=4;overflow=hidden;points=[[0,0.5],[1,0.5]];portConstraint=eastwest;rotatable=0;whiteSpace=wrap;html=1;" vertex="1" parent="sj1nmU6FJb1mizH8p0wp-121">
          <mxGeometry y="180" width="270" height="30" as="geometry" />
        </mxCell>
        <mxCell id="sj1nmU6FJb1mizH8p0wp-127" value="output : HashMap&amp;lt;String, int&amp;gt;" style="text;strokeColor=none;fillColor=none;align=left;verticalAlign=middle;spacingLeft=4;spacingRight=4;overflow=hidden;points=[[0,0.5],[1,0.5]];portConstraint=eastwest;rotatable=0;whiteSpace=wrap;html=1;" vertex="1" parent="sj1nmU6FJb1mizH8p0wp-121">
          <mxGeometry y="210" width="270" height="30" as="geometry" />
        </mxCell>
        <mxCell id="sj1nmU6FJb1mizH8p0wp-145" value="Master" style="swimlane;fontStyle=0;childLayout=stackLayout;horizontal=1;startSize=30;horizontalStack=0;resizeParent=1;resizeParentMax=0;resizeLast=0;collapsible=1;marginBottom=0;whiteSpace=wrap;html=1;" vertex="1" parent="1">
          <mxGeometry x="440" y="810" width="270" height="240" as="geometry">
            <mxRectangle x="100" y="810" width="80" height="30" as="alternateBounds" />
          </mxGeometry>
        </mxCell>
        <mxCell id="sj1nmU6FJb1mizH8p0wp-146" value="sourceFilePath" style="text;strokeColor=none;fillColor=none;align=left;verticalAlign=middle;spacingLeft=4;spacingRight=4;overflow=hidden;points=[[0,0.5],[1,0.5]];portConstraint=eastwest;rotatable=0;whiteSpace=wrap;html=1;" vertex="1" parent="sj1nmU6FJb1mizH8p0wp-145">
          <mxGeometry y="30" width="270" height="30" as="geometry" />
        </mxCell>
        <mxCell id="sj1nmU6FJb1mizH8p0wp-147" value="slavesNumber" style="text;strokeColor=none;fillColor=none;align=left;verticalAlign=middle;spacingLeft=4;spacingRight=4;overflow=hidden;points=[[0,0.5],[1,0.5]];portConstraint=eastwest;rotatable=0;whiteSpace=wrap;html=1;" vertex="1" parent="sj1nmU6FJb1mizH8p0wp-145">
          <mxGeometry y="60" width="270" height="30" as="geometry" />
        </mxCell>
        <mxCell id="sj1nmU6FJb1mizH8p0wp-148" value="slavesHostnames" style="text;strokeColor=none;fillColor=none;align=left;verticalAlign=middle;spacingLeft=4;spacingRight=4;overflow=hidden;points=[[0,0.5],[1,0.5]];portConstraint=eastwest;rotatable=0;whiteSpace=wrap;html=1;" vertex="1" parent="sj1nmU6FJb1mizH8p0wp-145">
          <mxGeometry y="90" width="270" height="30" as="geometry" />
        </mxCell>
        <mxCell id="sj1nmU6FJb1mizH8p0wp-149" value="slavesThreads" style="text;strokeColor=none;fillColor=none;align=left;verticalAlign=middle;spacingLeft=4;spacingRight=4;overflow=hidden;points=[[0,0.5],[1,0.5]];portConstraint=eastwest;rotatable=0;whiteSpace=wrap;html=1;" vertex="1" parent="sj1nmU6FJb1mizH8p0wp-145">
          <mxGeometry y="120" width="270" height="30" as="geometry" />
        </mxCell>
        <mxCell id="sj1nmU6FJb1mizH8p0wp-150" value="slavesShuffleStatus" style="text;strokeColor=none;fillColor=none;align=left;verticalAlign=middle;spacingLeft=4;spacingRight=4;overflow=hidden;points=[[0,0.5],[1,0.5]];portConstraint=eastwest;rotatable=0;whiteSpace=wrap;html=1;" vertex="1" parent="sj1nmU6FJb1mizH8p0wp-145">
          <mxGeometry y="150" width="270" height="30" as="geometry" />
        </mxCell>
        <mxCell id="sj1nmU6FJb1mizH8p0wp-151" value="slavesReduceStatus" style="text;strokeColor=none;fillColor=none;align=left;verticalAlign=middle;spacingLeft=4;spacingRight=4;overflow=hidden;points=[[0,0.5],[1,0.5]];portConstraint=eastwest;rotatable=0;whiteSpace=wrap;html=1;" vertex="1" parent="sj1nmU6FJb1mizH8p0wp-145">
          <mxGeometry y="180" width="270" height="30" as="geometry" />
        </mxCell>
        <mxCell id="sj1nmU6FJb1mizH8p0wp-152" value="output" style="text;strokeColor=none;fillColor=none;align=left;verticalAlign=middle;spacingLeft=4;spacingRight=4;overflow=hidden;points=[[0,0.5],[1,0.5]];portConstraint=eastwest;rotatable=0;whiteSpace=wrap;html=1;" vertex="1" parent="sj1nmU6FJb1mizH8p0wp-145">
          <mxGeometry y="210" width="270" height="30" as="geometry" />
        </mxCell>
      </root>
    </mxGraphModel>
  </diagram>
</mxfile>
